<svg width="77" height="77" viewBox="0 0 77 77" fill="none" xmlns="http://www.w3.org/2000/svg">
<circle cx="38.5" cy="38.5" r="38.5" fill="white"/>
<path d="M31.418 15.6445C26.4222 17.3776 22.1139 20.667 19.1258 25.0297C16.1377 29.3923 14.6274 34.5982 14.8166 39.8827C15.0059 45.1671 16.8848 50.2516 20.1773 54.3893C23.4698 58.527 28.0025 61.4998 33.1094 62.8711C37.2498 63.9394 41.5876 63.9863 45.7501 63.0078C49.5208 62.1608 53.007 60.3491 55.8672 57.75C58.8441 54.9623 61.0049 51.4159 62.1172 47.4922C63.3263 43.2252 63.5415 38.738 62.7462 34.375H39.4961V44.0195H52.961C52.6919 45.5577 52.1152 47.0259 51.2655 48.336C50.4158 49.6462 49.3104 50.7715 48.0157 51.6445C46.3715 52.7321 44.518 53.4639 42.5743 53.7929C40.6248 54.1554 38.6253 54.1554 36.6758 53.7929C34.7 53.3844 32.8309 52.569 31.1876 51.3984C28.5475 49.5296 26.5652 46.8747 25.5235 43.8125C24.4642 40.6929 24.4642 37.3109 25.5235 34.1914C26.265 32.0047 27.4908 30.0138 29.1094 28.3672C30.9617 26.4482 33.3068 25.0765 35.8874 24.4026C38.4679 23.7287 41.1843 23.7786 43.7383 24.5469C45.7335 25.1593 47.5581 26.2294 49.0665 27.6719C50.5847 26.1614 52.1003 24.6471 53.6133 23.1289C54.3946 22.3125 55.2461 21.5351 56.0157 20.6992C53.7132 18.5565 51.0105 16.8893 48.0626 15.7929C42.6942 13.8437 36.8203 13.7913 31.418 15.6445Z" fill="white"/>
<path d="M31.418 15.6445C36.8198 13.79 42.6937 13.8411 48.0625 15.789C51.011 16.8928 53.7124 18.5681 56.0117 20.7187C55.2305 21.5547 54.4062 22.3359 53.6094 23.1484C52.0938 24.6614 50.5794 26.1693 49.0664 27.6719C47.558 26.2294 45.7335 25.1593 43.7383 24.5469C41.1851 23.7759 38.4688 23.7231 35.8876 24.3943C33.3063 25.0654 30.9598 26.4346 29.1055 28.3515C27.4868 29.9982 26.261 31.9891 25.5195 34.1758L17.4219 27.9062C20.3203 22.1584 25.3389 17.7618 31.418 15.6445Z" fill="#E33629"/>
<path d="M15.2734 34.1172C15.7087 31.9601 16.4313 29.8712 17.4219 27.9062L25.5195 34.1914C24.4602 37.311 24.4602 40.6929 25.5195 43.8125C22.8216 45.8958 20.1224 47.9896 17.4219 50.0938C14.942 45.1575 14.1857 39.5332 15.2734 34.1172Z" fill="#F8BD00"/>
<path d="M39.4961 34.3711H62.7461C63.5414 38.7341 63.3263 43.2214 62.1172 47.4883C61.0049 51.412 58.8441 54.9584 55.8672 57.7461C53.2539 55.707 50.6289 53.6836 48.0157 51.6445C49.3113 50.7706 50.4171 49.6441 51.2669 48.3325C52.1166 47.021 52.6928 45.5513 52.961 44.0117H39.4961C39.4922 40.8008 39.4961 37.5859 39.4961 34.3711Z" fill="#587DBD"/>
<path d="M17.418 50.0938C20.1185 48.0104 22.8177 45.9167 25.5156 43.8125C26.5594 46.8758 28.5446 49.5308 31.1875 51.3984C32.836 52.5635 34.7091 53.3724 36.6875 53.7734C38.6369 54.1359 40.6365 54.1359 42.5859 53.7734C44.5297 53.4444 46.3831 52.7126 48.0273 51.625C50.6406 53.6641 53.2656 55.6875 55.8789 57.7266C53.0191 60.3271 49.5329 62.1402 45.7617 62.9883C41.5993 63.9668 37.2614 63.9199 33.1211 62.8516C29.8465 61.9772 26.7878 60.4359 24.1367 58.3242C21.3307 56.0964 19.0389 53.289 17.418 50.0938Z" fill="#319F43"/>
</svg>
